:SAMPLES-PER-SECOND 30
:FRAME-RANGE 1-744
:FULLY-SPECIFIED
:DEGREES
117
root  -38.0916 38.6374 -136.179 5.11679 55.4794 -3.53157
RightUpLeg  -19.3812 -18.1327 -5.66759
RightLeg  18.4894 -10.8017 -4.14377
RightFoot  -5.25193 -0.421355 7.23858
RightToes  -5.28216e-011 1.2921e-014 -6.02303e-014
Spine  -5.48394 -4.65058 -0.331461
Spine1  8.52593 -6.00153 4.36037
HEad  15.2881 15.9812 -1.53047
LeftShoulder1  1.45345 -2.31621 -19.6194
LeftArm  -0.685539 5.65409 -48.617
LeftForeArm  32.8145 4.95596 -13.3378
LeftHand  -0.0145671 5.91112 3.12962
RightShoulder  0.819211 -0.761919 25.9864
RightArm  -34.5879 -16.5178 43.9557
RightForeArm  54.9501 -5.11987 -0.682416
RightHand  0.000765112 -5.49164 -16.6028
LeftUpLeg  -2.54804 17.2421 19.374
LeftLeg  13.5825 25.7868 6.39542
LeftFoot  5.68419 3.92381 -26.0399
LeftToes  -9.4837e-011 -7.11147e-011 -1.07582e-011
118
root  -38.2611 38.612 -134.7 5.2075 52.7308 -3.19751
RightUpLeg  -19.6866 -16.7242 -3.99862
RightLeg  20.6676 -9.53519 -4.16227
RightFoot  -6.54061 -0.354343 7.3796
RightToes  -5.28216e-011 1.2921e-014 -6.02303e-014
Spine  -5.79249 -4.91426 -0.348143
Spine1  8.6558 -6.38076 4.77511
HEad  16.5449 19.9046 -1.4769
LeftShoulder1  1.40024 -2.16818 -19.3252
LeftArm  -1.5108 7.43084 -48.677
LeftForeArm  32.0175 4.10455 -13.018
LeftHand  -0.0199693 5.68436 3.01526
RightShoulder  0.843076 -0.722909 26.4524
RightArm  -33.5403 -16.0099 42.6814
RightForeArm  55.4828 -5.17519 -0.265285
RightHand  0.039943 -5.78148 -16.2237
LeftUpLeg  -2.06687 17.5294 21.3727
LeftLeg  16.7391 27.1621 8.88583
LeftFoot  10.7159 4.68506 -24.0629
LeftToes  -9.4837e-011 -7.11147e-011 -1.07582e-011
119
root  -38.403 38.6736 -133.325 4.83392 50.4077 -3.04346
RightUpLeg  -18.6608 -15.9627 -2.45332
RightLeg  21.39 -8.18633 -3.73284
RightFoot  -8.37357 -0.22167 6.35114
RightToes  -5.28216e-011 1.2921e-014 -6.02303e-014
Spine  -5.49317 -5.14295 -0.150851
Spine1  8.45763 -6.69999 5.21574
HEad  17.7657 23.1295 -0.863352
LeftShoulder1  1.45579 -2.39424 -19.2833
LeftArm  -2.12638 9.18532 -48.7127
LeftForeArm  31.1194 3.39704 -12.8057
LeftHand  -0.020706 5.60832 3.30259
RightShoulder  0.848233 -0.745481 26.9634
RightArm  -32.6682 -15.1717 41.4763
RightForeArm  56.3679 -5.2039 0.0630471
RightHand  0.0458446 -5.82617 -16.1722
LeftUpLeg  -2.80085 15.9973 22.1809
LeftLeg  21.0385 27.1796 11.2693
LeftFoot  13.3466 1.90088 -9.04806
LeftToes  -9.4837e-011 -7.11147e-011 -1.07582e-011
120
root  -38.4894 38.7646 -132.097 4.8551 47.5941 -2.43904
RightUpLeg  -17.3636 -12.8899 -1.60934
RightLeg  21.6131 -8.62196 -3.95869
RightFoot  -9.79676 -0.13896 5.36568
RightToes  -5.28216e-011 1.2921e-014 -6.02303e-014
Spine  -5.10605 -4.98969 0.450791
Spine1  8.557 -6.45749 4.94309
HEad  18.1065 25.7208 -0.436696
LeftShoulder1  1.46253 -2.36884 -19.5339
LeftArm  -2.01464 9.88219 -48.7079
LeftForeArm  31.0981 2.91959 -12.8493
LeftHand  -0.0290131 5.25413 3.21762
RightShoulder  0.870048 -0.678058 26.9509
RightArm  -31.8952 -13.7631 40.9935
RightForeArm  56.7265 -5.25128 0.406291
RightHand  0.110095 -6.29176 -16.2098
LeftUpLeg  -3.69532 14.2339 21.305
LeftLeg  25.0151 21.439 10.8521
LeftFoot  5.66895 0.785768 -5.48328
LeftToes  -9.4837e-011 -7.11147e-011 -1.07582e-011
